<?xml version="1.0" encoding="UTF-8"?>
<svg id="_圖層_1" xmlns="http://www.w3.org/2000/svg" version="1.1" viewBox="0 0 750 600">
  <!-- Generator: Adobe Illustrator 29.4.0, SVG Export Plug-In . SVG Version: 2.1.0 Build 152)  -->
  <defs>
    <style>
      .st0 {
        fill: none;
        stroke: #fff;
        stroke-miterlimit: 10;
        stroke-width: 20px;
      }

      .st1 {
        fill: #f9a671;
      }

      .st2 {
        fill: #fff;
      }

      .st3 {
        fill: #fdc794;
      }

      .st4 {
        fill: #ffa310;
      }

      .st5 {
        fill: #61c6c1;
      }
    </style>
  </defs>
  <g>
    <path class="st5" d="M462.3,354.4l-15.1,15.2c-2,2.1-5.2,2.6-7.8,1.4l-38.9-17.9c-1.9-.9-4.1-.8-6,.1l-4.4,2.2c-5.2,2.6-10.5,4.8-16,6.6l-4.7,1.6c-2,.7-3.5,2.2-4.2,4.2l-14.6,40.3c-1,2.7-3.6,4.5-6.5,4.6h-21.5c-2.9,0-5.5-1.7-6.5-4.4l-14.9-40.1c-.7-2-2.3-3.5-4.3-4.2l-4.7-1.6c-5.5-1.8-10.8-4.1-15.9-6.6l-4.4-2.2c-1.9-.9-4.1-.9-6,0l-38.9,18.2c-2.6,1.2-5.7.7-7.8-1.4l-15.3-15.1c-2.1-2-2.6-5.2-1.4-7.8l17.9-38.9c.9-1.9.8-4.1-.1-6l-2.2-4.4c-2.6-5.2-4.8-10.5-6.6-15.9l-1.6-4.6c-.7-2-2.2-3.5-4.2-4.3l-40.3-14.6c-2.7-1-4.5-3.6-4.6-6.5v-21.5c0-2.9,1.7-5.5,4.4-6.5l40.1-14.9c2-.7,3.5-2.3,4.2-4.3l1.6-4.7c1.8-5.5,4-10.8,6.6-15.9l2.2-4.4c.9-1.9,1-4.1,0-6l-18.2-38.8c-1.2-2.6-.7-5.7,1.4-7.8l15.1-15.2c2-2.1,5.2-2.6,7.8-1.4l38.9,17.9c1.9.9,4.1.8,6-.1l4.4-2.2c5.2-2.6,10.5-4.8,16-6.6l4.7-1.6c2-.7,3.5-2.2,4.2-4.2l14.6-40.3c1-2.7,3.6-4.5,6.5-4.6h21.5c2.9,0,5.5,1.7,6.5,4.4l14.9,40.1c.7,2,2.3,3.5,4.3,4.2l4.7,1.6c5.4,1.8,10.8,4.1,15.9,6.6l4.4,2.2c1.9.9,4.1.9,6,0l38.9-18.2c2.6-1.2,5.7-.7,7.8,1.4l15.2,15.1c2.1,2,2.6,5.2,1.4,7.8l-17.9,38.9c-.9,1.9-.8,4.1.1,6l2.2,4.4c2.6,5.2,4.8,10.5,6.6,15.9l1.6,4.6c.7,2,2.2,3.5,4.2,4.3l40.3,14.6c2.7,1,4.5,3.6,4.6,6.5v21.5c0,2.9-1.7,5.5-4.4,6.5l-40.1,14.9c-2,.7-3.5,2.3-4.2,4.3l-1.6,4.7c-1.8,5.5-4,10.8-6.6,15.9l-2.2,4.4c-.9,1.9-1,4.1,0,6l18.2,38.8c1.2,2.6.7,5.7-1.4,7.8Z"/>
    <g>
      <circle class="st4" cx="511.7" cy="234.5" r="64.2"/>
      <path class="st2" d="M501,265.8c-5.7,0-11-2.4-14.8-6.6l-16.1-18.6c-3.2-3.5-3-8.9.5-12.1,3.5-3.2,8.9-3,12.1.5l16.1,18.6c.7.8,1.8,1,2.2,1h0c.5,0,1.5-.1,2.3-1l37.2-34.6c3.1-3.5,8.6-3.8,12.1-.7,3.5,3.1,3.8,8.6.7,12.1l-37.2,34.6c-3.8,4.2-9.2,6.7-14.9,6.8h-.1Z"/>
    </g>
    <path class="st0" d="M332.8,315.9c-41.4,0-75-33.6-75-75s33.6-75,75-75,75,33.6,75,75c0,41.4-33.6,75-75,75Z"/>
  </g>
  <g>
    <path class="st3" d="M556.9,399.5l-28.7-58.7c-4.5-9.3-17.4-15.8-26.8-11.2-9.3,4.6-12.4,18.2-7.8,27.5l-11.7-23.9c-4.5-9.3-17.4-15.8-26.8-11.2-9.3,4.6-12.2,18.6-7.6,28l16.8,34.3-26.3-53.8c-4.5-9.3-17.4-15.8-26.8-11.2-9.3,4.6-12.2,18.6-7.6,28l-28.7-58.7c-4.5-9.3-17.4-15.8-26.8-11.2s-12.2,18.6-7.6,28l67.1,137c-6.7-13.7-31.9-35.4-50.8-41.8-16-5.5-42.8,16.7-14.8,31.6,19.7,10.4,44.3,40.9,53.1,58.9,8.8,18.1.4.8.6,1.3,16.1,31.7,54.8,44.4,86.8,28.7l54.3-26.6c29.6-14.5,41.7-50,27.3-79.6-14.5-29.6-4.6-9.4-7.4-15"/>
    <g>
      <path class="st1" d="M434.9,410.6c-3,1.5-5.9.5-7.3-2.5l-31.1-63.6c-1.5-3-.5-5.9,2.5-7.3,3-1.5,5.9-.5,7.3,2.5l31.1,63.6c1.5,3,.5,5.9-2.5,7.3Z"/>
      <path class="st1" d="M471.5,398.7c-3,1.5-5.9.5-7.3-2.5l-24-48.9c-1.5-3-.5-5.9,2.5-7.3s5.9-.5,7.3,2.5l24,48.9c1.5,3,.5,5.9-2.5,7.3h0Z"/>
      <path class="st1" d="M505.8,381.9c-3,1.5-5.9.5-7.3-2.5l-12-24.4c-1.5-3-.5-5.9,2.5-7.3,3-1.5,5.9-.5,7.3,2.5l12,24.4c1.5,3,.5,5.9-2.5,7.3Z"/>
    </g>
  </g>
</svg>