<?xml version="1.0" encoding="UTF-8"?>
<svg id="_圖層_1" xmlns="http://www.w3.org/2000/svg" version="1.1" viewBox="0 0 750 600">
  <!-- Generator: Adobe Illustrator 29.4.0, SVG Export Plug-In . SVG Version: 2.1.0 Build 152)  -->
  <defs>
    <style>
      .st0 {
        fill: #f9a671;
      }

      .st1 {
        fill: #fff;
      }

      .st2 {
        fill: #515151;
      }

      .st3 {
        fill: #fdc794;
      }

      .st4 {
        fill: #61c6c1;
      }

      .st5 {
        fill: #ffc82e;
      }
    </style>
  </defs>
  <path class="st4" d="M233.8,252.6c0-57.7,0-86.5,6.8-96.2,6.8-9.7,33.9-19,88.1-37.5l10.3-3.5c28.2-9.7,42.4-14.5,57-14.5s28.8,4.8,57,14.5l10.3,3.5c54.2,18.6,81.3,27.9,88.1,37.5,6.8,9.7,6.8,38.5,6.8,96.2v28.4c0,101.6-76.4,151-124.4,171.9-13,5.7-19.5,8.5-37.9,8.5s-24.9-2.9-37.9-8.5c-48-20.9-124.4-70.3-124.4-171.9v-28.4h0Z"/>
  <path class="st1" d="M387.4,327.2c-7.6,0-14.8-3.2-19.9-8.8l-37.3-40.7c-4.3-4.7-4-11.9.7-16.2s11.9-4,16.2.7l37.3,40.7c1,1.1,2.4,1.4,3,1.4h0c.7,0,2-.2,3.1-1.4l77.9-87.2c4.2-4.7,11.5-5.1,16.2-.9s5.1,11.5.9,16.2l-77.9,87.2c-5.1,5.7-12.4,9-20,9.1h-.2Z"/>
  <g>
    <path class="st3" d="M330.7,386.6c9.9,0,18,8.1,18,18h0c0,9.9-8.1,18-18,18h-7.7c9.9,0,18,8.1,18,18h0c0,9.9-8.1,18-18,18h-8.5c8.6,0,15.8,6.8,15.9,15.3,0,4.4-1.7,8.4-4.6,11.3-2.8,2.8-6.7,4.6-11,4.6h-101.9c-8.3,0-16.5-1.2-24.4-3.5h0c-11.3-3.3-23-5-34.7-5h0v-120h18.5c3,0,5.8-.9,8.2-2.4,2.4-1.5,4.4-3.7,5.7-6.4,3.1-6.6,7.1-12.8,11.9-18.4,16.1-18.7,34.1-41.3,35.4-63.9.4-7.7,6.6-13.8,14.3-14.1h.4c13.5-.5,22,10.9,23.3,24.3.8,8.5-2.5,26.2-11.6,42.6-7,12.4,2.1,27.7,16.3,27.7h57.7c5,0,9.5,2,12.7,5.3,3.3,3.3,5.3,7.8,5.3,12.7,0,9.9-8.1,18-18,18h-3.2Z"/>
    <g>
      <path class="st0" d="M297.2,387c0-3,2-4.9,4.9-4.9h33.6c3,0,4.9,2,4.9,4.9s-2,4.9-4.9,4.9h-33.6c-3,0-4.9-2-4.9-4.9Z"/>
      <path class="st0" d="M297.2,423.5c0-3,2-4.9,4.9-4.9h23.1c3,0,4.9,2,4.9,4.9s-2,4.9-4.9,4.9h-23.1c-3,0-4.9-2-4.9-4.9h0Z"/>
      <path class="st0" d="M297.2,460c0-3,2-4.9,4.9-4.9h13.1c3,0,4.9,2,4.9,4.9s-2,4.9-4.9,4.9h-13.1c-3,0-4.9-2-4.9-4.9Z"/>
    </g>
  </g>
  <rect class="st2" x="119.4" y="351.6" width="42.6" height="138.1" rx="12" ry="12"/>
  <path class="st5" d="M526.7,318.2l11.3,38.4c3.3,11.3,11.3,20.6,22,25.5l28,13-28,13c-10.7,4.9-18.7,14.2-22,25.5l-11.3,38.4-11.3-38.4c-3.3-11.3-11.3-20.6-22-25.5l-28-13,28-13c10.7-4.9,18.7-14.2,22-25.5l11.3-38.4Z"/>
  <path class="st5" d="M609.1,282.5l4.4,15c3.3,11.3,11.3,20.6,22,25.5l9.4,4.3-9.4,4.3c-10.7,4.9-18.7,14.2-22,25.5l-4.4,15-4.4-15c-3.3-11.3-11.3-20.6-22-25.5l-9.4-4.3,9.4-4.3c10.7-4.9,18.7-14.2,22-25.5l4.4-15Z"/>
</svg>