<?xml version="1.0" encoding="UTF-8"?>
<svg id="Layer_1" xmlns="http://www.w3.org/2000/svg" version="1.1" viewBox="0 0 750 600">
  <!-- Generator: Adobe Illustrator 29.4.0, SVG Export Plug-In . SVG Version: 2.1.0 Build 152)  -->
  <defs>
    <style>
      .st0 {
        fill: #111;
      }

      .st1 {
        fill: #636363;
      }

      .st2 {
        fill: #fff;
      }

      .st3 {
        fill: #ffa310;
      }

      .st4 {
        fill: #61c6c1;
      }

      .st5 {
        fill: none;
        stroke: #ffa310;
        stroke-linecap: round;
        stroke-linejoin: round;
        stroke-width: 10px;
      }

      .st6 {
        fill: #ffc82e;
      }
    </style>
  </defs>
  <path class="st4" d="M600.4,462.6h-19.8c-16.4,0-29.7-13.3-29.7-29.7v-6c0-7.2-3.7-13.6-9.9-17.2s-13.6-3.6-19.8,0l-5.2,3c-6.9,4-14.9,5-22.6,3-7.7-2.1-14.1-7-18.1-13.9l-9.9-17.2c-4-6.9-5-14.9-3-22.6,2.1-7.7,7-14.1,13.9-18.1l5.2-3c6.2-3.6,9.9-10,9.9-17.2s-3.7-13.6-9.9-17.2l-5.2-3c-14.2-8.2-19.1-26.4-10.9-40.6l9.9-17.2c4-6.9,10.4-11.8,18.1-13.9,7.7-2.1,15.7-1,22.6,3l5.2,3c6.2,3.6,13.6,3.6,19.8,0s9.9-10,9.9-17.2v-6c0-16.4,13.3-29.7,29.7-29.7h19.8c16.4,0,29.7,13.3,29.7,29.7v6c0,7.2,3.7,13.6,9.9,17.2,6.2,3.6,13.6,3.6,19.8,0l5.2-3c14.2-8.2,32.4-3.3,40.6,10.9l9.9,17.2h0c4,6.9,5,14.9,3,22.6-2.1,7.7-7,14.1-13.9,18.1l-5.2,3c-6.2,3.6-9.9,10-9.9,17.2s3.7,13.6,9.9,17.2l5.2,3c6.9,4,11.8,10.4,13.9,18.1,2.1,7.7,1,15.7-3,22.6l-9.9,17.2c-8.2,14.2-26.4,19.1-40.6,10.9l-5.2-3c-6.2-3.6-13.6-3.6-19.8,0s-9.9,10-9.9,17.2v6c0,16.4-13.3,29.7-29.7,29.7h0Z"/>
  <g>
    <path class="st3" d="M198.8,182c5.9,0,10.6-4.8,10.6-10.6v-21.3c0-5.9-4.8-10.6-10.6-10.6s-10.6,4.8-10.6,10.6v21.3c0,5.9,4.8,10.6,10.6,10.6Z"/>
    <path class="st3" d="M81.6,277.8h-21.3c-5.9,0-10.6,4.8-10.6,10.6s4.8,10.6,10.6,10.6h21.3c5.9,0,10.6-4.8,10.6-10.6s-4.8-10.6-10.6-10.6Z"/>
    <path class="st3" d="M337.2,277.8h-21.3c-5.9,0-10.6,4.8-10.6,10.6s4.8,10.6,10.6,10.6h21.3c5.9,0,10.6-4.8,10.6-10.6s-4.8-10.6-10.6-10.6Z"/>
    <path class="st3" d="M304.2,183.1c-4.2-4.1-10.8-4.1-15,0l-15.1,15c-4.2,4.1-4.2,10.9,0,15h0c2.1,2,4.8,3.1,7.6,3.1s5.5-1.1,7.6-3.1l15-15.1c4.1-4.2,4.1-10.8,0-15h0Z"/>
    <path class="st3" d="M123.5,213.2c4.2-4.1,4.2-10.9,0-15h0l-15.1-15c-4.5-3.8-11.2-3.3-15,1.1-3.5,4-3.5,9.9,0,13.8l15,15.1c2.1,2,4.8,3.1,7.6,3.1s5.5-1.1,7.6-3.1h0Z"/>
  </g>
  <path class="st2" d="M590.5,382.9c-32.5,0-59-26.4-59-59s26.4-59,59-59,59,26.4,59,59-26.4,59-59,59ZM590.5,288.5c-19.5,0-35.3,15.8-35.3,35.3s15.8,35.3,35.3,35.3,35.3-15.8,35.3-35.3-15.8-35.3-35.3-35.3Z"/>
  <g>
    <path class="st0" d="M397.4,513.1c-35.1,0-70-8.6-100.9-24.9-4.9-2.6-6.7-8.6-4.2-13.5,2.6-4.9,8.6-6.8,13.5-4.2,28,14.8,59.6,22.6,91.5,22.6s74.9-10.9,106.6-31.5c4.6-3,10.8-1.7,13.8,2.9s1.7,10.8-2.9,13.8c-35,22.7-75.6,34.7-117.5,34.7h.1Z"/>
    <polygon class="st0" points="325.2 458.3 265.5 455.3 292.7 508.6 325.2 458.3"/>
  </g>
  <g>
    <path class="st0" d="M524.5,136.2c-2.2,0-4.5-.7-6.3-2.2-34.8-28.4-78.8-44-123.8-44s-85.4,14.2-120.1,41c-4.4,3.4-10.6,2.6-14-1.8-3.4-4.4-2.6-10.6,1.8-14,38.2-29.6,83.9-45.2,132.3-45.2s98,17.2,136.4,48.5c4.3,3.5,4.9,9.8,1.4,14.1-2,2.4-4.9,3.7-7.8,3.7h0Z"/>
    <polygon class="st0" points="498.8 143.8 557.9 153.4 536.6 97.4 498.8 143.8"/>
  </g>
  <g>
    <path class="st6" d="M258.9,352.9c-15.7,13.4-26.6,31.4-31.2,51.5h-57.9c-4.5-19.9-15.2-37.9-30.5-51.4-15.1-16.1-23.4-37.4-23.7-59.4,2.1-45,38.1-81.1,83.2-83.2,21.2-.7,42,7.3,57.2,22.2,16.5,16,25.9,38,25.9,60.9.5,22.1-7.9,43.5-23.4,59.2h.5v.2Z"/>
    <path class="st0" d="M206.1,449.2h-14.7c-5.9,0-10.8,4.8-10.8,10.8s4.8,10.8,10.8,10.8h14.7c5.9,0,10.8-4.8,10.8-10.8s-4.8-10.8-10.8-10.8Z"/>
    <path class="st1" d="M228.4,402.8h-59.4c-5.9,0-10.8,4.8-10.8,10.8s4.8,10.8,10.8,10.8h59.4c5.9,0,10.8-4.8,10.8-10.8s-4.8-10.8-10.8-10.8h0Z"/>
    <path class="st1" d="M221.8,418.1h-46c-5.9,0-10.8,4.8-10.8,10.8s4.8,10.8,10.8,10.8h46c5.9,0,10.8-4.8,10.8-10.8s-4.8-10.8-10.8-10.8Z"/>
    <path class="st1" d="M217.8,434.1h-38c-5.9,0-10.8,4.8-10.8,10.8s4.8,10.8,10.8,10.8h38c5.9,0,10.8-4.8,10.8-10.8s-4.8-10.8-10.8-10.8Z"/>
    <polyline class="st5" points="184.3 389.3 174.3 310.9 198.8 325.3 223.2 310.9 213.2 389.3"/>
  </g>
</svg>